# xmcd
#
# Track frame offsets:
#	150
#	16107
#	38217
#	53865
#	63985
#	77620
#	89952
#	101635
#	116325
#	136565
#	152260
#	169135
#	182312
#	196185
#	212795
#	226282
#	246195
#	260025
#	276847
#	288760
#	300137
#	312440
#	324617
#
# Disc length: 4516 seconds
#
# Revision: 0
# Processed by: cddbd v1.5.1PL2 Copyright (c) Steve Scherf et al.
# Submitted via: dBpowerAMP V4.0
#
DISCID=2e11a217
DTITLE=Johny Otis - Johny Otis Blues Brothers
DYEAR=1900
DGENRE=Blues
TTITLE0=Bad Luck Shadow
TTITLE1=Wee Baby Blues
TTITLE2=Kidney Stew
TTITLE3=Louie Louie
TTITLE4=Beans and Cornbread
TTITLE5=Pink Champagne
TTITLE6=Country Girl
TTITLE7=Doin' it
TTITLE8=Squeeze me baby
TTITLE9=I'm the midnight creeper
TTITLE10=Ooh Baby I Love you
TTITLE11=The Honeydripper (part 1 )
TTITLE12=The Honeydripper (part 2)
TTITLE13=Evening Shadows Coming
TTITLE14=Cherry Red
TTITLE15=Nothing from  nothing blues
TTITLE16=One Scotch, One Bourbon, One Beer
TTITLE17=Boom-chickie-A-boobie
TTITLE18=Let the good times roll
TTITLE19=Person to person
TTITLE20=Chicken Shack Boogie
TTITLE21=I'm a good thing
TTITLE22=Bye Bye Baby
EXTD=Johny Otis Blues Brothers
EXTT0=
EXTT1=
EXTT2=
EXTT3=
EXTT4=
EXTT5=
EXTT6=
EXTT7=
EXTT8=
EXTT9=
EXTT10=
EXTT11=
EXTT12=
EXTT13=
EXTT14=
EXTT15=
EXTT16=
EXTT17=
EXTT18=
EXTT19=
EXTT20=
EXTT21=
EXTT22=
PLAYORDER=
